<?xml version="1.0" standalone="no"?>
<!DOCTYPE svg PUBLIC "-//W3C//DTD SVG 20010904//EN"
 "http://www.w3.org/TR/2001/REC-SVG-20010904/DTD/svg10.dtd">
<svg version="1.0" xmlns="http://www.w3.org/2000/svg"
 width="1518.000000pt" height="1518.000000pt" viewBox="0 0 1518.000000 1518.000000"
 preserveAspectRatio="xMidYMid meet">
<metadata>
Created by potrace 1.14, written by Peter Selinger 2001-2017
</metadata>
<g transform="translate(0.000000,1518.000000) scale(0.100000,-0.100000)"
fill="#000000" stroke="none">
<path d="M8337 15114 c-1 -1 -45 -4 -97 -8 -52 -3 -108 -8 -125 -11 -333 -58
-486 -105 -730 -226 -177 -87 -312 -173 -452 -286 -80 -64 -6011 -5983 -6208
-6195 -128 -138 -232 -277 -319 -428 -26 -45 -120 -231 -121 -240 -1 -3 -11
-27 -23 -54 -12 -27 -22 -53 -22 -58 0 -6 -6 -24 -14 -41 -42 -100 -98 -332
-120 -507 -15 -115 -15 -492 -1 -585 76 -484 226 -836 511 -1199 77 -96 2786
-2805 2747 -2746 -56 87 -105 222 -133 369 -38 205 -32 542 14 751 3 14 11 49
17 79 6 29 20 79 31 110 11 31 21 65 23 76 10 45 88 223 152 345 84 160 220
356 341 491 15 16 1463 1466 3217 3222 1755 1756 3221 3230 3259 3277 248 311
418 685 485 1065 6 33 13 74 15 90 30 170 27 507 -5 705 -24 148 -111 463
-138 505 -4 6 -18 37 -31 70 -95 239 -281 512 -497 730 -191 192 -390 334
-638 455 -333 163 -650 239 -1026 244 -61 1 -111 1 -112 0z"/>
<path d="M11922 12598 c80 -127 117 -229 154 -428 19 -101 26 -407 12 -525
-24 -198 -70 -385 -140 -559 -96 -244 -228 -463 -402 -671 -74 -89 -72 -86
-3356 -3370 -1673 -1672 -3076 -3080 -3119 -3130 -211 -245 -364 -517 -465
-826 -18 -57 -73 -282 -80 -329 -40 -281 -40 -548 0 -785 84 -493 303 -922
654 -1277 134 -136 239 -224 371 -311 263 -174 540 -288 869 -358 94 -20 138
-23 420 -25 319 -3 350 -1 555 41 278 57 606 205 865 391 97 70 123 91 218
179 99 91 6086 6081 6137 6140 237 272 406 577 500 901 l25 88 0 586 0 585
-29 100 c-80 279 -233 567 -428 810 -77 95 -2793 2823 -2761 2773z"/>
</g>
</svg>
